# Blender v3.1.2 OBJ File: ''
# www.blender.org
mtllib Golem.mtl
o Snow_Golem_Mesh
v -0.127000 -0.076200 0.127000
v 0.127000 -0.076200 0.127000
v -0.127000 -0.076200 -0.127000
v 0.127000 -0.076200 -0.127000
v -0.127000 0.177800 0.127000
v 0.127000 0.177800 0.127000
v -0.127000 0.177800 -0.127000
v 0.127000 0.177800 -0.127000
v -0.152400 -0.381000 0.152400
v 0.152400 -0.381000 0.152400
v -0.152400 -0.381000 -0.152400
v 0.152400 -0.381000 -0.152400
v -0.152400 -0.076200 0.152400
v 0.152400 -0.076200 0.152400
v -0.152400 -0.076200 -0.152400
v 0.152400 -0.076200 -0.152400
v 0.243397 -0.168889 -0.000000
v 0.266417 -0.158154 -0.000000
v 0.114583 0.107354 0.000000
v 0.137603 0.118089 0.000000
v 0.243397 -0.168889 0.025400
v 0.266417 -0.158154 0.025400
v 0.114583 0.107354 0.025400
v 0.137603 0.118089 0.025400
v -0.243397 -0.168889 -0.000000
v -0.266417 -0.158154 -0.000000
v -0.114583 0.107354 0.000000
v -0.137603 0.118089 0.000000
v -0.243397 -0.168889 0.025400
v -0.266417 -0.158154 0.025400
v -0.114583 0.107354 0.025400
v -0.137603 0.118089 0.025400
v -0.101600 0.177800 0.101600
v 0.101600 0.177800 0.101600
v -0.101600 0.177800 -0.101600
v 0.101600 0.177800 -0.101600
v -0.101600 0.381000 0.101600
v 0.101600 0.381000 0.101600
v -0.101600 0.381000 -0.101600
v 0.101600 0.381000 -0.101600
vt 0.312562 0.593722
vt 0.312562 0.750000
vt 0.468800 0.750000
vt 0.468800 0.593722
vt 0.156260 0.593722
vt 0.312562 0.593722
vt 0.312562 0.750000
vt 0.156260 0.750000
vt 0.156260 0.437500
vt 0.312562 0.437500
vt 0.468800 0.437500
vt 0.468800 0.593722
vt 0.625000 0.437500
vt 0.625000 0.593722
vt 0.000000 0.437500
vt 0.000000 0.593722
vt 0.375000 0.250000
vt 0.375000 0.437500
vt 0.562500 0.437500
vt 0.562500 0.250000
vt 0.187500 0.250000
vt 0.375000 0.250000
vt 0.375000 0.437500
vt 0.187500 0.437500
vt 0.187500 0.062500
vt 0.375000 0.062500
vt 0.562500 0.062500
vt 0.562500 0.250000
vt 0.750000 0.062500
vt 0.750000 0.250000
vt 0.000000 0.062500
vt 0.000000 0.250000
vt 0.737500 0.968884
vt 0.906226 0.968884
vt 0.906226 0.937500
vt 0.737500 0.937500
vt 0.525000 0.968884
vt 0.525000 0.937500
vt 0.737500 0.937500
vt 0.737500 0.968884
vt 0.500000 0.968883
vt 0.500000 0.937500
vt 0.737500 1.000000
vt 0.906226 1.000000
vt 0.906226 0.968884
vt 0.737500 0.968884
vt 0.937500 0.937500
vt 0.937500 0.968851
vt 0.737500 1.000000
vt 0.525000 1.000000
vt 0.737500 0.968884
vt 0.737500 0.937500
vt 0.906226 0.937500
vt 0.906226 0.968884
vt 0.525000 0.968884
vt 0.737500 0.968884
vt 0.737500 0.937500
vt 0.525000 0.937500
vt 0.500000 0.968883
vt 0.500000 0.937500
vt 0.737500 1.000000
vt 0.737500 0.968884
vt 0.906226 0.968884
vt 0.906226 1.000000
vt 0.937500 0.968851
vt 0.937500 0.937500
vt 0.737500 1.000000
vt 0.525000 1.000000
vt 0.262500 0.875000
vt 0.262500 1.000000
vt 0.375000 1.000000
vt 0.375000 0.875000
vt 0.125000 0.875000
vt 0.262500 0.875000
vt 0.262500 1.000000
vt 0.125000 1.000000
vt 0.125000 0.750000
vt 0.262500 0.750000
vt 0.375000 0.750000
vt 0.375000 0.875000
vt 0.500000 0.750000
vt 0.500000 0.875000
vt 0.000000 0.750000
vt 0.000000 0.875000
vn 0.0000 -1.0000 0.0000
vn 0.0000 1.0000 0.0000
vn 0.0000 0.0000 1.0000
vn 1.0000 0.0000 0.0000
vn 0.0000 -0.0000 -1.0000
vn -1.0000 0.0000 0.0000
vn 0.4226 -0.9063 0.0000
vn 0.9063 0.4226 0.0000
vn -0.4226 0.9063 0.0000
vn -0.9063 -0.4226 0.0000
vn -0.4226 -0.9063 0.0000
vn -0.9063 0.4226 0.0000
vn 0.4226 0.9063 0.0000
vn 0.9063 -0.4226 0.0000
usemtl Snow_Golem
s 1
f 1/1/1 3/2/1 4/3/1 2/4/1
f 5/5/2 6/6/2 8/7/2 7/8/2
f 1/9/3 2/10/3 6/6/3 5/5/3
f 2/10/4 4/11/4 8/12/4 6/6/4
f 4/11/5 3/13/5 7/14/5 8/12/5
f 3/15/6 1/9/6 5/5/6 7/16/6
f 9/17/1 11/18/1 12/19/1 10/20/1
f 13/21/2 14/22/2 16/23/2 15/24/2
f 9/25/3 10/26/3 14/22/3 13/21/3
f 10/26/4 12/27/4 16/28/4 14/22/4
f 12/27/5 11/29/5 15/30/5 16/28/5
f 11/31/6 9/25/6 13/21/6 15/32/6
f 17/33/5 19/34/5 20/35/5 18/36/5
f 21/37/3 22/38/3 24/39/3 23/40/3
f 17/41/7 18/42/7 22/38/7 21/37/7
f 18/43/8 20/44/8 24/45/8 22/46/8
f 20/35/9 19/47/9 23/48/9 24/45/9
f 19/49/10 17/50/10 21/37/10 23/40/10
f 25/51/5 26/52/5 28/53/5 27/54/5
f 29/55/3 31/56/3 32/57/3 30/58/3
f 25/59/11 29/55/11 30/58/11 26/60/11
f 26/61/12 30/62/12 32/63/12 28/64/12
f 28/53/13 32/63/13 31/65/13 27/66/13
f 27/67/14 31/56/14 29/55/14 25/68/14
f 33/69/1 35/70/1 36/71/1 34/72/1
f 37/73/2 38/74/2 40/75/2 39/76/2
f 33/77/3 34/78/3 38/74/3 37/73/3
f 34/78/4 36/79/4 40/80/4 38/74/4
f 36/79/5 35/81/5 39/82/5 40/80/5
f 35/83/6 33/77/6 37/73/6 39/84/6
o Block_Mesh.001
v -0.151798 0.178402 -0.151798
v 0.151798 0.178402 -0.151798
v -0.151798 0.481998 -0.151797
v 0.151798 0.481998 -0.151797
v -0.151798 0.178402 0.151798
v 0.151798 0.178402 0.151798
v -0.151798 0.481997 0.151798
v 0.151798 0.481997 0.151798
vt 1.000000 0.500000
vt 1.000000 0.750000
vt 0.750000 0.750000
vt 0.750000 0.500000
vt 0.250000 0.500000
vt 0.500000 0.500000
vt 0.500000 0.750000
vt 0.250000 0.750000
vt 0.500000 1.000000
vt 0.750000 1.000000
vt 0.750000 0.750000
vt 0.500000 0.750000
vt 0.500000 1.000000
vt 0.250000 1.000000
vt 0.000000 0.750000
vt 0.000000 0.500000
vn 0.0000 0.0000 -1.0000
vn 0.0000 -0.0000 1.0000
vn 0.0000 -1.0000 -0.0000
vn 1.0000 0.0000 0.0000
vn 0.0000 1.0000 0.0000
vn -1.0000 0.0000 0.0000
usemtl 02_-_Default
s 1
f 41/85/15 43/86/15 44/87/15 42/88/15
f 45/89/16 46/90/16 48/91/16 47/92/16
f 41/93/17 42/94/17 46/95/17 45/96/17
f 42/88/18 44/87/18 48/91/18 46/90/18
f 44/97/19 43/98/19 47/92/19 48/91/19
f 43/99/20 41/100/20 45/89/20 47/92/20
