# Blender v3.1.2 OBJ File: 'casa.blend'
# www.blender.org
mtllib escaleras.mtl
o Cube.505_Cube.518
v -9.900000 -0.900001 4.500000
v -9.900000 -0.000001 3.600000
v -9.900000 -0.900000 2.700000
v -8.100000 -0.900001 4.500000
v -9.000000 -0.000001 4.500000
v -8.100000 -0.900000 2.700000
v -9.000000 -0.000000 2.700000
v -9.000000 0.899999 3.600000
v -8.100000 0.900000 2.700000
v -9.900000 -0.000001 4.500000
v -9.900000 -0.000000 2.700000
v -9.000000 0.900000 2.700000
v -8.100000 -0.000001 3.600000
v -8.100000 -0.000001 4.500000
v -9.450000 -0.000001 3.600000
v -9.000000 -0.000001 3.600000
v -8.100000 0.899999 3.600000
v -9.599999 -0.000001 3.900000
vt -0.001306 0.499841
vt -0.001306 0.000075
vt 0.998227 0.000075
vt 0.998227 0.499841
vt 0.498460 0.499841
vt 1.000400 0.002091
vt 1.000400 0.501702
vt 0.500790 0.501702
vt 0.001179 0.501702
vt 0.001179 0.002091
vt -0.002116 0.001746
vt 0.997269 0.001746
vt 0.997269 1.001132
vt -0.002116 1.001132
vt 0.499852 0.502682
vt 0.002634 0.502682
vt 0.002634 0.005464
vt 0.997071 0.005464
vt 0.997071 0.999900
vt 0.499852 0.999900
vt 0.000271 0.001959
vt 0.499082 0.001959
vt 0.499082 0.500771
vt 0.000271 0.500771
vt 0.498450 0.503666
vt 0.498450 1.003595
vt -0.001478 1.003595
vt -0.001479 0.003738
vt 0.998378 0.003738
vt 0.998378 0.503666
vt 0.997269 0.001746
vt 0.497576 0.001746
vt 0.497576 0.501439
vt 0.747423 0.501439
vt 0.997269 0.501439
vt 0.497576 1.001132
vt 0.997269 1.001132
vt 0.664141 0.668003
vt 0.499852 0.502682
vt 0.997071 0.502682
vt 0.997071 0.005464
vt 0.499852 0.005464
vt 0.497576 0.501439
vt 0.997269 0.501439
vt 0.997269 0.001746
vt 0.497576 0.001746
vt 0.498449 0.003738
vt -0.001479 0.003738
vt -0.001478 0.503667
vt 0.498450 0.503666
vn 0.0000 0.0000 1.0000
vn 0.0000 0.7071 0.7071
vn 0.0000 0.4472 0.8944
vn -1.0000 0.0000 0.0000
vn -0.8944 0.4472 0.0000
vn -0.7071 0.7071 0.0000
vn 0.0000 -1.0000 -0.0000
vn 1.0000 0.0000 0.0000
vn 0.0000 1.0000 0.0000
vn -0.5774 0.5774 0.5774
vn 0.0000 0.0000 -1.0000
vn -0.7071 -0.0000 0.7071
usemtl Material.006
s 1
f 10/1/1 1/2/1 4/3/1 14/4/2 5/5/3
f 1/6/4 10/7/4 2/8/5 11/9/6 3/10/4
f 3/11/7 6/12/7 4/13/7 1/14/7
f 13/15/8 14/16/8 4/17/8 6/18/8 9/19/8 17/20/8
f 9/21/9 12/22/6 8/23/10 17/24/2
f 7/25/11 12/26/11 9/27/11 6/28/11 3/29/11 11/30/11
f 7/31/9 11/32/6 2/33/5 15/34/9 16/35/9
f 10/36/9 5/37/9 16/35/9 15/34/9 18/38/9 2/33/9
f 2/33/9 18/38/9 15/34/9
f 8/39/10 12/40/6 7/41/4 16/42/12
f 5/43/3 14/44/2 13/45/9 16/46/9
f 16/47/12 13/48/1 17/49/2 8/50/10
o Cube.506_Cube.519
v -8.100000 -0.900001 4.500000
v -8.100000 -0.900000 2.700000
v -8.100000 -0.000001 3.600000
v -6.300001 -0.900001 4.500000
v -6.300001 -0.900000 2.700000
v -6.300001 -0.000001 3.600000
v -6.300001 0.900000 2.700000
v -8.100000 0.900000 2.700000
v -6.300001 -0.000001 4.500000
v -8.100000 -0.000001 4.500000
v -8.100000 0.899999 3.600000
v -6.300001 0.899999 3.600000
vt 0.001179 1.001312
vt 0.001179 0.002091
vt 1.000400 0.002091
vt 1.000400 0.501702
vt 0.500790 0.501701
vt 0.500790 1.001312
vt -0.001306 0.499841
vt -0.001306 0.000075
vt 0.998227 0.000075
vt 0.998227 0.499841
vt -0.002116 0.001746
vt 0.997269 0.001746
vt 0.997269 1.001132
vt -0.002116 1.001132
vt 0.499852 0.502682
vt 0.002634 0.502682
vt 0.002634 0.005464
vt 0.997071 0.005464
vt 0.997071 0.999900
vt 0.499852 0.999900
vt 0.000271 0.001959
vt 0.997893 0.001959
vt 0.997893 0.500771
vt 0.000271 0.500771
vt 0.998378 0.003738
vt 0.998378 1.003594
vt -0.001478 1.003595
vt -0.001479 0.003738
vt 0.997269 0.001746
vt -0.002116 0.001746
vt -0.002116 0.501439
vt 0.997269 0.501439
vt 0.998378 0.503666
vt 0.998378 0.003738
vt -0.001479 0.003738
vt -0.001478 0.503667
vn -1.0000 0.0000 0.0000
vn 0.0000 0.7071 0.7071
vn 0.0000 0.0000 1.0000
vn 0.0000 -1.0000 -0.0000
vn 1.0000 -0.0000 0.0000
vn 0.0000 1.0000 0.0000
vn 0.0000 0.0000 -1.0000
usemtl Material.006
s 1
f 26/51/13 20/52/13 19/53/13 28/54/13 21/55/13 29/56/13
f 28/57/14 19/58/15 22/59/15 27/60/14
f 20/61/16 23/62/16 22/63/16 19/64/16
f 24/65/17 27/66/17 22/67/17 23/68/17 25/69/17 30/70/17
f 25/71/18 26/72/18 29/73/14 30/74/14
f 20/75/19 26/76/19 25/77/19 23/78/19
f 24/79/18 21/80/18 28/81/14 27/82/14
f 29/83/14 21/84/15 24/85/15 30/86/14
o Cube.507_Cube.520
v -6.300001 -0.900001 4.500000
v -5.400002 -0.000001 4.500000
v -6.300001 -0.900000 2.700000
v -5.400002 -0.000000 2.700000
v -6.300001 -0.000001 3.600000
v -4.500002 -0.900001 4.500000
v -4.500002 -0.900000 2.700000
v -4.500002 -0.000001 3.600000
v -5.400002 0.899999 3.600000
v -6.300001 0.900000 2.700000
v -4.500002 -0.000001 4.500000
v -6.300001 -0.000001 4.500000
v -6.300001 0.899999 3.600000
v -4.500002 -0.000000 2.700000
v -5.400002 0.900000 2.700000
v -5.400002 -0.000001 3.600000
vt 0.500790 1.001312
vt 0.001179 1.001312
vt 0.001179 0.002091
vt 1.000400 0.002091
vt 1.000400 0.501702
vt 0.500790 0.501701
vt -0.001306 0.499841
vt -0.001306 0.000075
vt 0.998227 0.000075
vt 0.998227 0.499841
vt 0.498461 0.499841
vt -0.002116 0.001746
vt 0.997269 0.001746
vt 0.997269 1.001132
vt -0.002116 1.001132
vt 0.002634 0.005464
vt 0.997071 0.005464
vt 0.997071 0.502682
vt 0.499852 0.502682
vt 0.002634 0.502682
vt 0.499082 0.001959
vt 0.997893 0.001959
vt 0.997893 0.500771
vt 0.499082 0.500771
vt -0.001479 0.003738
vt 0.998378 0.003738
vt 0.998378 1.003594
vt 0.498450 1.003595
vt 0.498450 0.503666
vt -0.001478 0.503667
vt 0.497576 0.001746
vt -0.002116 0.001746
vt -0.002116 0.501439
vt 0.497576 0.501439
vt 0.997269 0.501439
vt 0.997269 0.001746
vt 0.498450 0.503666
vt 0.998378 0.503666
vt 0.998378 0.003738
vt 0.498449 0.003738
vt 0.497576 0.001746
vt -0.002116 0.001746
vt -0.002116 0.501439
vt 0.497576 0.501439
vt 0.500789 0.002091
vt 0.001179 0.002091
vt 0.001179 0.501702
vt 0.500790 0.501701
vn -1.0000 0.0000 0.0000
vn 0.0000 0.7071 0.7071
vn 0.0000 0.0000 1.0000
vn 0.0000 0.4472 0.8944
vn 0.0000 -1.0000 -0.0000
vn 1.0000 0.0000 0.0000
vn 0.7071 0.7071 0.0000
vn 0.8944 0.4472 0.0000
vn 0.0000 1.0000 0.0000
vn 0.5774 0.5774 0.5774
vn 0.0000 0.0000 -1.0000
vn 0.7071 -0.0000 0.7071
usemtl Material.006
s 1
f 43/87/20 40/88/20 33/89/20 31/90/20 42/91/20 35/92/20
f 42/93/21 31/94/22 36/95/22 41/96/22 32/97/23
f 33/98/24 37/99/24 36/100/24 31/101/24
f 36/102/25 37/103/25 44/104/26 38/105/27 41/106/25
f 45/107/26 40/108/28 43/109/21 39/110/29
f 37/111/30 33/112/30 40/113/30 45/114/30 34/115/30 44/116/30
f 46/117/28 35/118/28 42/119/21 32/120/23
f 32/120/28 41/121/28 38/122/28 46/117/28
f 39/123/29 43/124/21 35/125/22 46/126/31
f 44/127/26 34/128/28 46/129/28 38/130/27
f 46/131/31 34/132/25 45/133/26 39/134/29
