# Blender v3.1.2 OBJ File: ''
# www.blender.org
mtllib cuadro.mtl
o Cube_Cube.002
v 0.056095 0.904453 -0.899063
v 0.056095 2.702578 -0.899063
v 0.056095 0.904453 0.899063
v 0.056095 2.702578 0.899063
v -0.056095 0.904453 -0.899063
v -0.056095 2.702578 -0.899063
v -0.056095 0.904453 0.899063
v -0.056095 2.702578 0.899063
vt 0.375000 0.070485
vt 0.625000 0.070485
vt 0.625000 0.120456
vt 0.375000 0.120456
vt 0.015501 0.000490
vt 0.964813 0.000490
vt 0.964813 0.060490
vt 0.015501 0.060490
vt 0.987500 0.012500
vt 0.987500 0.987500
vt 0.012500 0.987500
vt 0.012500 0.012500
vt 0.031569 0.963010
vt 0.968431 0.963010
vt 0.968431 1.036990
vt 0.031569 1.036990
vt 0.048454 0.007590
vt 0.958468 0.007590
vt 0.958468 0.066155
vt 0.048454 0.066155
vt 0.001380 0.939604
vt 1.003541 0.939604
vt 1.003541 1.001337
vt 0.001380 1.001337
vn 1.0000 0.0000 -0.0000
vn 0.0000 0.0000 1.0000
vn -1.0000 0.0000 0.0000
vn 0.0000 0.0000 -1.0000
vn 0.0000 -1.0000 0.0000
vn 0.0000 1.0000 0.0000
usemtl Material.001
s off
f 1/1/1 2/2/1 4/3/1 3/4/1
f 3/5/2 4/6/2 8/7/2 7/8/2
f 7/9/3 8/10/3 6/11/3 5/12/3
f 5/13/4 6/14/4 2/15/4 1/16/4
f 3/17/5 7/18/5 5/19/5 1/20/5
f 8/21/6 4/22/6 2/23/6 6/24/6
